{"glyphs":{"0":{"ha":833,"x_min":0,"x_max":0,"o":""},"1":{"ha":833,"x_min":0,"x_max":0,"o":""},"2":{"ha":833,"x_min":0,"x_max":0,"o":""},"3":{"ha":833,"x_min":0,"x_max":0,"o":""},"4":{"ha":833,"x_min":0,"x_max":0,"o":""},"5":{"ha":833,"x_min":0,"x_max":0,"o":""},"6":{"ha":833,"x_min":0,"x_max":0,"o":""},"7":{"ha":833,"x_min":0,"x_max":0,"o":""},"8":{"ha":833,"x_min":0,"x_max":0,"o":""},"9":{"ha":833,"x_min":0,"x_max":0,"o":""},"A":{"ha":578,"x_min":0,"x_max":0,"o":"m 278 1285 l 572 -1 l 397 -1 l 363 136 l 139 136 l 106 -1 l -69 -1 l 225 1285 m 260 629 l 243 629 l 169 289 l 332 289 "},"B":{"ha":592,"x_min":0,"x_max":0,"o":"m 35 1289 b 532 897 351 1289 540 1364 b 476 565 529 729 514 626 b 532 264 524 508 543 415 b 222 0 519 85 464 15 l 35 0 l 35 1289 m 219 656 b 368 736 358 650 363 718 l 368 1008 b 219 1101 368 1008 368 1121 b 219 656 214 1101 215 656 m 222 181 b 368 261 358 176 363 244 l 368 374 b 222 468 368 374 368 486 l 222 181 "},"C":{"ha":539,"x_min":0,"x_max":0,"o":"m 297 -17 b 44 236 139 -17 53 118 l 44 1064 b 297 1317 53 1182 139 1317 b 508 1196 396 1317 467 1264 l 374 1061 b 297 1122 371 1076 343 1122 b 221 1061 251 1122 224 1076 l 221 240 b 297 178 224 224 251 178 b 374 240 343 178 371 224 l 508 106 b 297 -17 467 36 396 -17 "},"D":{"ha":590,"x_min":0,"x_max":0,"o":"m 210 0 b 533 340 413 0 532 26 l 535 910 b 208 1296 536 1268 422 1296 l 29 1296 l 29 0 l 210 0 m 210 1097 b 364 999 365 1117 364 999 l 367 943 l 367 381 l 364 299 b 210 200 364 299 364 179 l 210 1097 "},"E":{"ha":601,"x_min":0,"x_max":0,"o":"m 546 1285 l 546 1099 l 236 1099 l 236 757 l 499 757 l 499 563 l 236 563 l 236 186 l 546 186 l 546 0 l 56 0 l 56 1285 "},"F":{"ha":544,"x_min":0,"x_max":0,"o":"m 517 1285 l 517 1099 l 208 1099 l 208 758 l 472 758 l 472 563 l 208 563 l 208 0 l 28 0 l 28 1285 "},"G":{"ha":585,"x_min":0,"x_max":0,"o":"m 546 228 b 292 -25 536 110 450 -25 b 39 228 135 -25 49 110 l 39 1071 b 292 1324 49 1189 135 1324 b 546 1071 450 1324 536 1189 l 546 972 l 369 972 l 369 1067 b 292 1128 367 1082 338 1128 b 215 1067 246 1128 218 1082 l 215 232 b 292 171 218 215 246 171 b 369 232 338 171 367 215 l 369 593 l 292 593 l 292 772 l 546 772 l 546 228 "},"H":{"ha":578,"x_min":0,"x_max":0,"o":"m 211 1286 l 211 767 l 368 767 l 368 1286 l 547 1286 l 547 1 l 368 1 l 368 569 l 211 569 l 211 1 l 31 1 l 31 1286 "},"I":{"ha":265,"x_min":0,"x_max":0,"o":"m 42 1285 l 224 1285 l 224 0 l 42 0 "},"J":{"ha":592,"x_min":0,"x_max":0,"o":"m 289 0 b 0 282 65 0 3 181 l 154 351 b 274 186 160 285 179 188 b 353 354 351 185 353 304 l 353 1282 l 536 1282 l 535 1094 l 535 343 b 289 0 535 147 476 0 "},"K":{"ha":624,"x_min":0,"x_max":0,"o":"m 204 1285 l 204 756 l 417 1285 l 596 1285 l 347 663 l 596 0 l 417 0 l 256 431 l 204 303 l 204 0 l 28 0 l 28 1285 "},"L":{"ha":536,"x_min":0,"x_max":0,"o":"m 208 1286 l 208 189 l 522 189 l 522 0 l 28 0 l 28 1286 "},"M":{"ha":751,"x_min":0,"x_max":0,"o":"m 217 1285 l 217 1283 l 353 654 l 369 654 l 507 1285 l 682 1285 l 682 0 l 507 0 l 507 622 l 388 168 l 335 168 l 217 619 l 217 0 l 42 0 l 42 1285 "},"N":{"ha":575,"x_min":0,"x_max":0,"o":"m 31 1285 l 203 1285 l 346 689 l 346 1285 l 518 1285 l 518 0 l 346 0 l 201 597 l 201 0 l 29 0 "},"O":{"ha":572,"x_min":0,"x_max":0,"o":"m 275 -35 b 22 218 117 -35 31 100 l 22 1061 b 275 1314 31 1179 117 1314 b 528 1061 433 1314 519 1179 l 528 218 b 275 -35 519 100 433 -35 m 275 160 b 351 222 321 160 349 206 l 351 1056 b 275 1118 349 1072 321 1118 b 199 1056 229 1118 201 1072 l 199 222 b 275 160 201 206 229 160 "},"P":{"ha":558,"x_min":0,"x_max":0,"o":"m 14 1285 b 517 863 343 1285 522 1363 b 194 422 513 465 432 421 l 194 0 l 14 0 l 14 1285 m 192 611 b 346 696 335 604 340 676 l 346 990 b 192 1089 346 990 346 1108 b 192 611 186 1089 188 611 "},"Q":{"ha":636,"x_min":0,"x_max":0,"o":"m 31 1058 b 283 1311 39 1176 125 1311 b 536 1058 442 1311 528 1176 l 536 229 b 518 147 533 201 528 174 l 606 -8 l 432 -8 l 418 15 b 283 -24 381 -8 336 -24 b 31 229 125 -24 39 111 l 31 1058 m 207 235 b 283 172 210 218 238 172 b 321 183 297 172 311 176 l 276 263 l 360 263 l 360 1054 b 283 1117 357 1071 329 1117 b 207 1054 238 1117 210 1071 l 207 235 "},"R":{"ha":608,"x_min":0,"x_max":0,"o":"m 28 1285 b 518 875 351 1285 522 1336 b 463 535 517 701 501 597 l 581 0 l 407 0 l 301 447 b 204 443 274 444 240 443 l 204 0 l 28 0 l 28 1285 m 201 629 b 353 711 343 624 349 693 l 353 1001 b 201 1097 353 1001 354 1117 b 201 629 196 1096 197 629 "},"S":{"ha":567,"x_min":0,"x_max":0,"o":"m 289 -7 b -1 276 64 -7 1 174 l 153 344 b 288 178 160 279 193 179 b 349 360 374 176 360 322 b 6 938 285 575 56 799 b 17 1163 -21 1021 -15 1089 b 229 1303 49 1235 132 1294 b 482 1164 332 1311 449 1231 l 353 1051 b 239 1114 311 1096 286 1118 b 171 1058 210 1111 182 1088 b 179 972 158 1025 168 993 b 315 761 222 892 258 838 b 396 642 315 761 361 697 b 521 411 419 604 478 522 b 535 338 528 393 533 367 b 289 -7 540 217 475 -7 "},"T":{"ha":517,"x_min":0,"x_max":0,"o":"m 14 1099 l 14 1285 l 503 1285 l 503 1099 l 347 1099 l 347 0 l 169 0 l 169 1099 "},"U":{"ha":575,"x_min":0,"x_max":0,"o":"m 281 -21 b 28 232 122 -21 36 114 l 28 1285 l 204 1285 l 204 236 b 281 175 207 219 235 175 b 357 236 326 175 354 219 l 357 1285 l 533 1285 l 533 232 b 281 -21 525 114 439 -21 "},"V":{"ha":675,"x_min":0,"x_max":0,"o":"m 190 1283 l 329 661 l 346 661 l 485 1283 l 661 1283 l 364 0 l 311 0 l 14 1283 "},"W":{"ha":1003,"x_min":0,"x_max":0,"o":"m 654 -7 l 501 656 l 350 -7 l 297 -7 l 0 1278 l 176 1278 l 315 654 l 332 654 l 442 1076 l 561 1076 l 671 654 l 688 654 l 826 1278 l 1003 1278 l 706 -7 "},"X":{"ha":589,"x_min":0,"x_max":0,"o":"m 574 0 l 396 0 l 294 344 l 192 0 l 14 0 l 206 643 l 14 1285 l 192 1285 l 292 947 l 397 1285 l 575 1285 l 379 651 "},"Y":{"ha":668,"x_min":0,"x_max":0,"o":"m 14 1285 l 189 1285 l 335 854 l 479 1285 l 654 1285 l 424 610 l 422 610 l 422 0 l 243 0 l 243 610 "},"Z":{"ha":590,"x_min":0,"x_max":0,"o":"m 51 1100 l 51 1285 l 576 1285 l 260 185 l 539 185 l 539 0 l 14 0 l 331 1100 "},"a":{"ha":833,"x_min":0,"x_max":0,"o":""},"b":{"ha":833,"x_min":0,"x_max":0,"o":""},"c":{"ha":833,"x_min":0,"x_max":0,"o":""},"d":{"ha":833,"x_min":0,"x_max":0,"o":""},"e":{"ha":833,"x_min":0,"x_max":0,"o":""},"f":{"ha":833,"x_min":0,"x_max":0,"o":""},"g":{"ha":833,"x_min":0,"x_max":0,"o":""},"h":{"ha":833,"x_min":0,"x_max":0,"o":""},"i":{"ha":833,"x_min":0,"x_max":0,"o":""},"j":{"ha":833,"x_min":0,"x_max":0,"o":""},"k":{"ha":833,"x_min":0,"x_max":0,"o":""},"l":{"ha":833,"x_min":0,"x_max":0,"o":""},"m":{"ha":833,"x_min":0,"x_max":0,"o":""},"n":{"ha":833,"x_min":0,"x_max":0,"o":""},"o":{"ha":833,"x_min":0,"x_max":0,"o":""},"p":{"ha":833,"x_min":0,"x_max":0,"o":""},"q":{"ha":833,"x_min":0,"x_max":0,"o":""},"r":{"ha":833,"x_min":0,"x_max":0,"o":""},"s":{"ha":833,"x_min":0,"x_max":0,"o":""},"t":{"ha":833,"x_min":0,"x_max":0,"o":""},"u":{"ha":833,"x_min":0,"x_max":0,"o":""},"v":{"ha":833,"x_min":0,"x_max":0,"o":""},"w":{"ha":833,"x_min":0,"x_max":0,"o":""},"x":{"ha":833,"x_min":0,"x_max":0,"o":""},"y":{"ha":833,"x_min":0,"x_max":0,"o":""},"z":{"ha":833,"x_min":0,"x_max":0,"o":""},".":{"ha":246,"x_min":0,"x_max":0,"o":"m 28 96 b 138 -14 28 35 76 -14 b 246 96 197 -14 246 35 b 138 204 246 156 197 204 b 28 96 76 204 28 156 "},",":{"ha":285,"x_min":0,"x_max":0,"o":"m 285 215 l 179 -82 l 0 -82 l 106 215 "},"!":{"ha":246,"x_min":0,"x_max":0,"o":"m 47 279 l 33 1313 l 214 1313 l 200 279 m 14 74 b 124 -36 14 13 63 -36 b 232 74 183 -36 232 13 b 124 182 232 133 183 182 b 14 74 63 182 14 133 "},"/":{"ha":563,"x_min":0,"x_max":0,"o":"m 563 1294 l 193 -4 l 0 -4 l 369 1294 "},"-":{"ha":381,"x_min":0,"x_max":0,"o":"m 381 529 l 0 529 l 0 710 l 381 710 "},"'":{"ha":340,"x_min":0,"x_max":0,"o":"m 313 1283 l 207 986 l 28 986 l 133 1283 "}," ":{"ha":347,"x_min":0,"x_max":0,"o":""},"&":{"ha":833,"x_min":0,"x_max":0,"o":""}}}
